<?xml version="1.0" standalone="no"?>
<!DOCTYPE svg PUBLIC "-//W3C//DTD SVG 20010904//EN"
 "http://www.w3.org/TR/2001/REC-SVG-20010904/DTD/svg10.dtd">
<svg version="1.0" xmlns="http://www.w3.org/2000/svg"
 width="512.000000pt" height="512.000000pt" viewBox="0 0 512.000000 512.000000"
 preserveAspectRatio="xMidYMid meet">
<metadata>
Created by potrace 1.14, written by Peter Selinger 2001-2017
</metadata>
<g transform="translate(0.000000,512.000000) scale(0.100000,-0.100000)"
fill="#000000" stroke="none">
<path d="M2190 5091 c-159 -44 -483 -132 -504 -136 -10 -2 -104 -27 -208 -55
-104 -28 -222 -60 -261 -70 -313 -80 -727 -195 -761 -211 -23 -10 -61 -38 -84
-61 -96 -93 -111 -180 -62 -363 39 -150 49 -185 111 -420 28 -104 53 -196 55
-205 13 -57 66 -256 164 -616 17 -61 32 -119 35 -130 4 -18 18 -72 66 -251 11
-43 35 -134 54 -203 74 -283 94 -358 110 -415 9 -33 21 -76 25 -95 40 -169 60
-215 120 -285 22 -25 40 -53 40 -61 0 -21 40 -98 56 -107 8 -4 14 -12 14 -17
0 -8 760 -768 1187 -1188 180 -177 210 -195 323 -196 59 -1 85 4 124 22 71 35
1979 1943 2016 2017 19 40 24 66 24 125 0 134 28 100 -550 682 l-335 336 20
74 c11 40 45 165 75 277 45 167 55 215 52 265 -7 118 -93 234 -198 269 -48 16
-693 192 -983 269 -66 17 -125 36 -131 42 -6 6 -39 119 -74 251 -79 300 -91
333 -143 387 -93 97 -202 117 -377 69z m250 -141 c43 -30 63 -79 95 -225 3
-10 21 -80 41 -155 20 -74 49 -184 65 -245 16 -60 33 -126 39 -145 6 -19 60
-222 120 -450 61 -228 123 -464 140 -525 221 -821 252 -949 241 -987 -7 -21
-25 -51 -42 -66 -36 -33 -46 -37 -634 -192 -225 -60 -489 -130 -585 -155 -96
-26 -182 -49 -190 -51 -8 -2 -31 -8 -50 -13 -19 -5 -78 -21 -130 -35 -52 -14
-135 -36 -185 -49 -97 -26 -108 -26 -170 -3 -53 21 -76 59 -108 181 -14 55
-33 127 -42 160 -9 33 -70 265 -137 515 -66 250 -180 680 -253 955 -74 275
-152 572 -175 660 -23 88 -47 169 -53 180 -23 43 -2 120 42 157 47 39 82 54
201 82 8 2 146 38 305 81 388 102 416 110 590 157 83 22 192 50 243 63 50 13
96 26 100 29 5 3 19 7 33 10 13 2 96 23 184 47 242 64 251 64 315 19z m887
-870 c557 -151 542 -147 569 -169 66 -54 71 -98 30 -251 -19 -69 -85 -312
-146 -540 -61 -228 -117 -437 -125 -465 -8 -27 -37 -133 -64 -235 -87 -325
-191 -712 -221 -820 -16 -58 -47 -175 -70 -260 -50 -193 -55 -203 -96 -235
-51 -39 -100 -35 -329 28 -110 30 -270 74 -355 97 -85 24 -249 69 -365 100
-477 131 -631 172 -654 177 -52 9 -57 21 -16 32 278 72 407 107 495 131 58 16
263 70 455 120 537 141 703 188 733 207 95 58 154 152 158 250 3 62 -5 95 -96
433 -21 80 -118 444 -215 810 -97 366 -180 677 -185 693 -7 21 -6 27 5 27 8 0
230 -58 492 -130z m998 -1472 c306 -309 365 -373 371 -403 16 -87 67 -31 -976
-1073 -1055 -1056 -992 -999 -1089 -979 -40 8 -81 47 -578 540 -294 293 -574
571 -623 620 -49 48 -86 87 -82 87 3 0 19 -4 36 -10 32 -10 210 -59 236 -65
34 -8 577 -157 605 -166 115 -37 816 -220 864 -225 70 -8 144 12 202 54 80 57
87 77 239 642 143 532 249 927 321 1189 21 79 39 148 39 152 0 4 4 19 10 34
l10 26 26 -28 c14 -15 189 -193 389 -395z"/>
</g>
</svg>
